<svg width="25" height="24" viewBox="0 0 25 24" fill="none" xmlns="http://www.w3.org/2000/svg">
<circle cx="12.5" cy="12" r="12" fill="#F9E160"/>
<g filter="url(#filter0_i_2117_2)">
<circle cx="12.5" cy="12" r="9.9661" fill="#FE881C" fill-opacity="0.72"/>
</g>
<g filter="url(#filter1_d_2117_2)">
<path d="M12.0398 18.7118V17.3621C10.5885 17.2522 9.45379 16.7323 8.63562 15.8025L9.58529 14.4528C10.2574 15.1927 11.0755 15.6376 12.0398 15.7875V12.8932C11.582 12.7732 11.2022 12.6583 10.9002 12.5483C10.5983 12.4283 10.2817 12.2633 9.95054 12.0534C9.61938 11.8334 9.36613 11.5535 9.19081 11.2136C9.02523 10.8637 8.94244 10.4538 8.94244 9.98388C8.94244 9.21406 9.2249 8.55921 9.78983 8.01934C10.3548 7.47947 11.1047 7.16954 12.0398 7.08956V5.69489H13.2086V7.10455C14.3872 7.23452 15.3661 7.68442 16.1453 8.45424L15.1664 9.75893C14.6307 9.21906 13.9781 8.86914 13.2086 8.70918V11.2886C13.569 11.3886 13.8758 11.4835 14.1291 11.5735C14.3823 11.6635 14.6599 11.7935 14.9619 11.9634C15.2735 12.1234 15.5219 12.3033 15.707 12.5033C15.892 12.6932 16.0479 12.9432 16.1745 13.2531C16.3011 13.563 16.3644 13.913 16.3644 14.3029C16.3644 15.1227 16.0966 15.8175 15.5609 16.3874C15.0349 16.9472 14.2508 17.2722 13.2086 17.3621V18.7118H12.0398ZM14.2752 15.3076C14.5089 15.0577 14.6258 14.7778 14.6258 14.4678C14.6258 14.1579 14.5041 13.908 14.2606 13.718C14.0171 13.5181 13.6664 13.3481 13.2086 13.2081V15.8025C13.6859 15.7225 14.0414 15.5576 14.2752 15.3076ZM10.6957 9.86391C10.6957 10.3438 11.1437 10.7137 12.0398 10.9736V8.6342C11.621 8.67419 11.2898 8.80915 11.0463 9.0391C10.8125 9.25905 10.6957 9.53399 10.6957 9.86391Z" fill="#FFEA7C"/>
</g>
<defs>
<filter id="filter0_i_2117_2" x="2.53394" y="2.03387" width="19.9323" height="20.6441" filterUnits="userSpaceOnUse" color-interpolation-filters="sRGB">
<feFlood flood-opacity="0" result="BackgroundImageFix"/>
<feBlend mode="normal" in="SourceGraphic" in2="BackgroundImageFix" result="shape"/>
<feColorMatrix in="SourceAlpha" type="matrix" values="0 0 0 0 0 0 0 0 0 0 0 0 0 0 0 0 0 0 127 0" result="hardAlpha"/>
<feMorphology radius="0.711864" operator="erode" in="SourceAlpha" result="effect1_innerShadow_2117_2"/>
<feOffset dy="0.711864"/>
<feComposite in2="hardAlpha" operator="arithmetic" k2="-1" k3="1"/>
<feColorMatrix type="matrix" values="0 0 0 0 0 0 0 0 0 0 0 0 0 0 0 0 0 0 0.25 0"/>
<feBlend mode="normal" in2="shape" result="effect1_innerShadow_2117_2"/>
</filter>
<filter id="filter1_d_2117_2" x="8.63562" y="5.69489" width="7.72876" height="13.7288" filterUnits="userSpaceOnUse" color-interpolation-filters="sRGB">
<feFlood flood-opacity="0" result="BackgroundImageFix"/>
<feColorMatrix in="SourceAlpha" type="matrix" values="0 0 0 0 0 0 0 0 0 0 0 0 0 0 0 0 0 0 127 0" result="hardAlpha"/>
<feOffset dy="0.711864"/>
<feComposite in2="hardAlpha" operator="out"/>
<feColorMatrix type="matrix" values="0 0 0 0 0 0 0 0 0 0 0 0 0 0 0 0 0 0 0.25 0"/>
<feBlend mode="normal" in2="BackgroundImageFix" result="effect1_dropShadow_2117_2"/>
<feBlend mode="normal" in="SourceGraphic" in2="effect1_dropShadow_2117_2" result="shape"/>
</filter>
</defs>
</svg>
