<svg width="46" height="43" viewBox="0 0 46 43" fill="none" xmlns="http://www.w3.org/2000/svg">
<path d="M33.1543 11.9015C32.7992 11.8804 32.4382 11.9576 32.1125 12.1241C31.7869 12.2907 31.5097 12.54 31.3125 12.8436L27.6307 18.4729L21.2348 15.5218C20.9329 15.3863 20.5938 15.3338 20.2522 15.3696C19.9106 15.4054 19.5786 15.5283 19.29 15.7257C19.0014 15.9231 18.7666 16.1881 18.6094 16.4935C18.4523 16.7989 18.3784 17.1339 18.3953 17.4644L18.8283 24.495L12.2474 25.8868C11.8925 25.9611 11.5593 26.1294 11.2853 26.3726C11.0114 26.6157 10.8076 26.9242 10.6971 27.2629C10.5866 27.6017 10.5737 27.9574 10.66 28.2897C10.7462 28.622 10.9281 28.9177 11.1851 29.1434L20.738 37.5794C20.9223 37.7432 21.1416 37.8664 21.3824 37.9416C21.6232 38.0169 21.8807 38.0425 22.1391 38.0171C22.4902 37.9845 22.8323 37.8603 23.129 37.6578C23.273 37.559 23.4033 37.4419 23.5163 37.31C27.3868 32.8925 32.3461 29.4996 37.8659 27.4928C38.3662 27.3042 38.7827 26.9347 39.024 26.4655C39.1434 26.2344 39.2139 25.9849 39.2311 25.7329C39.2482 25.4808 39.2117 25.2316 39.1237 25.001L34.7327 13.0336C34.6146 12.7127 34.4042 12.4367 34.1253 12.2366C33.8464 12.0366 33.5101 11.9205 33.1543 11.9015Z" fill="#FFAA00"/>
<circle cx="17.5561" cy="13.1936" r="4.09085" transform="rotate(-34.3776 17.5561 13.1936)" fill="#FFAA00"/>
<circle cx="25.6411" cy="25.0108" r="3.06814" transform="rotate(-34.3776 25.6411 25.0108)" fill="#BE9502"/>
<circle cx="33.5495" cy="10.3069" r="2.55678" transform="rotate(-34.3776 33.5495 10.3069)" fill="#FFAA00"/>
<circle cx="9.06999" cy="27.0536" r="2.55678" transform="rotate(-34.3776 9.06999 27.0536)" fill="#FFAA00"/>
<circle cx="20.176" cy="30.608" r="1.53407" transform="rotate(-34.3776 20.176 30.608)" fill="#BE9502"/>
<circle cx="32.8369" cy="21.9459" r="1.53407" transform="rotate(-34.3776 32.8369 21.9459)" fill="#BE9502"/>
</svg>
