<svg width="16" height="18" viewBox="0 0 16 18" fill="none" xmlns="http://www.w3.org/2000/svg">
<path d="M8.00009 17C12.3078 17 15.3847 15.4763 15.3847 12.0843C15.3847 8.39815 13.5386 5.94031 9.84625 4.09662L11.2986 2.22831C11.3725 2.10576 11.4127 1.96579 11.415 1.82267C11.4172 1.67954 11.3815 1.53837 11.3115 1.41354C11.2414 1.28871 11.1395 1.18467 11.0162 1.11203C10.8929 1.03938 10.7525 1.00073 10.6093 1H5.39086C5.24803 1.00149 5.1081 1.04061 4.98521 1.11343C4.86232 1.18625 4.76081 1.29019 4.6909 1.41476C4.621 1.53934 4.58519 1.68014 4.58707 1.82298C4.58895 1.96581 4.62847 2.10562 4.70163 2.22831L6.15394 4.10892C2.46163 5.96492 0.615479 8.42277 0.615479 12.1089C0.615479 15.4763 3.6924 17 8.00009 17Z" stroke="white" stroke-linecap="round" stroke-linejoin="round"/>
<path d="M9.7022 8.76124C9.61093 8.50064 9.44077 8.27494 9.21536 8.11547C8.98995 7.95601 8.72047 7.8707 8.44436 7.87139H7.41297C7.1191 7.87081 6.8354 7.97897 6.61651 8.17506C6.39761 8.37114 6.25901 8.64127 6.22738 8.93344C6.19574 9.22561 6.27333 9.51915 6.44518 9.75753C6.61704 9.99592 6.87101 10.1623 7.1582 10.2246L8.72989 10.5692C9.05015 10.6407 9.33286 10.8276 9.52397 11.0943C9.71509 11.361 9.80121 11.6888 9.76588 12.0151C9.73055 12.3413 9.57624 12.643 9.33245 12.8627C9.08865 13.0823 8.77248 13.2043 8.44436 13.2055H7.55697C6.97605 13.2055 6.48251 12.8339 6.29912 12.3169M8.00005 7.87139V6.53847M8.00005 14.5385V13.2055" stroke="white" stroke-linecap="round" stroke-linejoin="round"/>
</svg>
