<svg width="19" height="20" viewBox="0 0 19 20" fill="none" xmlns="http://www.w3.org/2000/svg">
<path d="M9.50007 8.75C8.66031 8.75 7.85494 8.42076 7.26114 7.83471C6.66733 7.24866 6.33374 6.4538 6.33374 5.625C6.33374 4.7962 6.66733 4.00134 7.26114 3.41529C7.85494 2.82924 8.66031 2.5 9.50007 2.5C10.3398 2.5 11.1452 2.82924 11.739 3.41529C12.3328 4.00134 12.6664 4.7962 12.6664 5.625C12.6664 6.4538 12.3328 7.24866 11.739 7.83471C11.1452 8.42076 10.3398 8.75 9.50007 8.75ZM9.50007 3.75C8.44885 3.75 7.60027 4.5875 7.60027 5.625C7.60027 6.6625 8.44885 7.5 9.50007 7.5C10.5513 7.5 11.3999 6.6625 11.3999 5.625C11.3999 4.5875 10.5513 3.75 9.50007 3.75Z" fill="white"/>
<path d="M17.0992 13.75C16.7445 13.75 16.4659 13.475 16.4659 13.125C16.4659 12.775 16.7445 12.5 17.0992 12.5C17.4538 12.5 17.7324 12.225 17.7324 11.875C17.7324 11.0462 17.3988 10.2513 16.805 9.66529C16.2112 9.07924 15.4059 8.75 14.5661 8.75H13.2996C12.9449 8.75 12.6663 8.475 12.6663 8.125C12.6663 7.775 12.9449 7.5 13.2996 7.5C14.3508 7.5 15.1994 6.6625 15.1994 5.625C15.1994 4.5875 14.3508 3.75 13.2996 3.75C12.9449 3.75 12.6663 3.475 12.6663 3.125C12.6663 2.775 12.9449 2.5 13.2996 2.5C14.1393 2.5 14.9447 2.82924 15.5385 3.41529C16.1323 4.00134 16.4659 4.7962 16.4659 5.625C16.4659 6.4 16.1872 7.1 15.706 7.65C17.5931 8.15 18.9989 9.85 18.9989 11.875C18.9989 12.9125 18.1504 13.75 17.0992 13.75ZM1.90077 13.75C0.849553 13.75 0.000976562 12.9125 0.000976562 11.875C0.000976562 9.85 1.39416 8.15 3.29396 7.65C2.82534 7.1 2.53404 6.4 2.53404 5.625C2.53404 4.7962 2.86763 4.00134 3.46144 3.41529C4.05524 2.82924 4.86061 2.5 5.70037 2.5C6.055 2.5 6.33363 2.775 6.33363 3.125C6.33363 3.475 6.055 3.75 5.70037 3.75C4.64915 3.75 3.80057 4.5875 3.80057 5.625C3.80057 6.6625 4.64915 7.5 5.70037 7.5C6.055 7.5 6.33363 7.775 6.33363 8.125C6.33363 8.475 6.055 8.75 5.70037 8.75H4.43384C3.59407 8.75 2.78871 9.07924 2.1949 9.66529C1.6011 10.2513 1.26751 11.0462 1.26751 11.875C1.26751 12.225 1.54614 12.5 1.90077 12.5C2.2554 12.5 2.53404 12.775 2.53404 13.125C2.53404 13.475 2.2554 13.75 1.90077 13.75ZM13.2996 17.5H5.70037C4.64915 17.5 3.80057 16.6625 3.80057 15.625V14.375C3.80057 11.9625 5.78903 10 8.23343 10H10.7665C13.2109 10 15.1994 11.9625 15.1994 14.375V15.625C15.1994 16.6625 14.3508 17.5 13.2996 17.5ZM8.23343 11.25C7.39367 11.25 6.5883 11.5792 5.9945 12.1653C5.4007 12.7513 5.0671 13.5462 5.0671 14.375V15.625C5.0671 15.975 5.34574 16.25 5.70037 16.25H13.2996C13.6542 16.25 13.9328 15.975 13.9328 15.625V14.375C13.9328 13.5462 13.5992 12.7513 13.0054 12.1653C12.4116 11.5792 11.6063 11.25 10.7665 11.25H8.23343Z" fill="white"/>
</svg>
