<svg width="12" height="12" viewBox="0 0 12 12" fill="none" xmlns="http://www.w3.org/2000/svg">
<path d="M11.6141 3.06574L6.52858 11.1642C6.46651 11.2624 6.38049 11.3433 6.2786 11.3993C6.17671 11.4553 6.06228 11.4844 5.94603 11.4841C5.82979 11.4837 5.71554 11.4539 5.61398 11.3973C5.51243 11.3407 5.4269 11.2593 5.36542 11.1607L0.379668 3.06282C0.239877 2.83569 0.166147 2.5741 0.166752 2.3074C0.173201 1.91406 0.335387 1.53933 0.617739 1.26539C0.900091 0.991463 1.27956 0.840693 1.67292 0.846152H10.3343C11.1608 0.846152 11.8334 1.49773 11.8334 2.30448C11.8334 2.57165 11.7576 2.8359 11.6135 3.06574M1.6035 2.79507L5.3135 8.51523V2.21815H1.99142C1.60758 2.21815 1.4355 2.47248 1.60409 2.79507M6.68608 8.51523L10.3961 2.79507C10.567 2.47248 10.392 2.21815 10.0082 2.21815H6.68608V8.51523Z" fill="#35A9EA"/>
</svg>
