<svg width="15" height="15" viewBox="0 0 15 15" fill="none" xmlns="http://www.w3.org/2000/svg">
<path d="M7.5 0.500032L7.825 0.120033C7.73443 0.0425681 7.61918 0 7.5 0C7.38082 0 7.26557 0.0425681 7.175 0.120033L7.5 0.500032ZM0.5 6.50002L0.175 6.12002L0 6.27002V6.50002H0.5ZM5.5 14.5V15C5.63261 15 5.75979 14.9473 5.85355 14.8536C5.94732 14.7598 6 14.6326 6 14.5H5.5ZM9.5 14.5H9C9 14.6326 9.05268 14.7598 9.14645 14.8536C9.24021 14.9473 9.36739 15 9.5 15V14.5ZM14.5 6.50002H15V6.27002L14.825 6.12002L14.5 6.50002ZM1.5 15H5.5V14H1.5V15ZM14.825 6.12002L7.825 0.120033L7.175 0.880031L14.175 6.88002L14.825 6.12002ZM7.175 0.120033L0.175 6.12002L0.825 6.88002L7.825 0.880031L7.175 0.120033ZM6 14.5V11.5H5V14.5H6ZM9 11.5V14.5H10V11.5H9ZM9.5 15H13.5V14H9.5V15ZM15 13.5V6.50002H14V13.5H15ZM0 6.50002V13.5H1V6.50002H0ZM7.5 10C7.89782 10 8.27936 10.158 8.56066 10.4394C8.84197 10.7207 9 11.1022 9 11.5H10C10 10.837 9.73661 10.2011 9.26777 9.73225C8.79893 9.2634 8.16304 9.00001 7.5 9.00001V10ZM7.5 9.00001C6.83696 9.00001 6.20107 9.2634 5.73223 9.73225C5.26339 10.2011 5 10.837 5 11.5H6C6 11.1022 6.15804 10.7207 6.43934 10.4394C6.72064 10.158 7.10218 10 7.5 10V9.00001ZM13.5 15C13.8978 15 14.2794 14.842 14.5607 14.5607C14.842 14.2794 15 13.8978 15 13.5H14C14 13.6326 13.9473 13.7598 13.8536 13.8536C13.7598 13.9473 13.6326 14 13.5 14V15ZM1.5 14C1.36739 14 1.24021 13.9473 1.14645 13.8536C1.05268 13.7598 1 13.6326 1 13.5H0C0 13.8978 0.158035 14.2794 0.43934 14.5607C0.720644 14.842 1.10218 15 1.5 15V14Z" fill="white"/>
</svg>
