<svg width="18" height="18" viewBox="0 0 18 18" fill="none" xmlns="http://www.w3.org/2000/svg">
<path d="M10.332 12.2957C10.2997 12.2637 10.2561 12.2457 10.2106 12.2457C10.1652 12.2457 10.1215 12.2637 10.0892 12.2957L7.59275 14.7922C6.43689 15.948 4.48611 16.0705 3.20994 14.7922C1.93162 13.5138 2.05408 11.5652 3.20994 10.4094L5.70642 7.91287C5.77302 7.84626 5.77302 7.73669 5.70642 7.67009L4.85134 6.81501C4.81904 6.78303 4.77542 6.76508 4.72996 6.76509C4.6845 6.76508 4.64087 6.78303 4.60857 6.81501L2.11208 9.3115C0.294507 11.1291 0.294507 14.0703 2.11208 15.8857C3.92966 17.7011 6.87087 17.7033 8.6863 15.8857L11.1828 13.3892C11.2494 13.3226 11.2494 13.2131 11.1828 13.1465L10.332 12.2957ZM15.8879 2.11208C14.0703 0.294507 11.1291 0.294507 9.31365 2.11208L6.81502 4.60857C6.78303 4.64087 6.76509 4.6845 6.76509 4.72996C6.76509 4.77542 6.78303 4.81904 6.81502 4.85134L7.66795 5.70427C7.73455 5.77087 7.84412 5.77087 7.91072 5.70427L10.4072 3.20779C11.5631 2.05193 13.5138 1.92947 14.79 3.20779C16.0683 4.48611 15.9459 6.43474 14.79 7.5906L12.2935 10.0871C12.2615 10.1194 12.2436 10.163 12.2436 10.2085C12.2436 10.2539 12.2615 10.2976 12.2935 10.3299L13.1486 11.1849C13.2152 11.2515 13.3248 11.2515 13.3914 11.1849L15.8879 8.68845C17.7033 6.87087 17.7033 3.92966 15.8879 2.11208ZM11.1076 5.99861C11.0753 5.96662 11.0317 5.94868 10.9862 5.94868C10.9407 5.94868 10.8971 5.96662 10.8648 5.99861L5.99861 10.8627C5.96662 10.895 5.94868 10.9386 5.94868 10.9841C5.94868 11.0295 5.96662 11.0731 5.99861 11.1054L6.84939 11.9562C6.91599 12.0228 7.02556 12.0228 7.09216 11.9562L11.9562 7.09216C12.0228 7.02556 12.0228 6.91599 11.9562 6.84939L11.1076 5.99861Z" fill="white"/>
</svg>
