<svg width="25" height="24" viewBox="0 0 25 24" fill="none" xmlns="http://www.w3.org/2000/svg">
<g clip-path="url(#clip0_2084_553)">
<path d="M12.5 24C19.1274 24 24.5 18.6274 24.5 12C24.5 5.37258 19.1274 0 12.5 0C5.87258 0 0.5 5.37258 0.5 12C0.5 18.6274 5.87258 24 12.5 24Z" fill="#0088CC"/>
<path fill-rule="evenodd" clip-rule="evenodd" d="M7.81189 6.28571H17.2036C17.5625 6.28571 17.8616 6.3431 18.2205 6.51527C18.6393 6.68745 18.8786 6.97441 18.9982 7.20398C18.9982 7.20398 18.9982 7.26138 19.058 7.26138C19.2375 7.54834 19.3571 7.89269 19.3571 8.29444C19.3571 8.63879 19.2973 8.98315 19.058 9.3275L13.1359 19.0842C13.0162 19.3138 12.7769 19.4286 12.4778 19.4286C12.2386 19.4286 11.9993 19.3138 11.8198 19.0842L6.0173 9.3275C5.89766 9.09793 5.65838 8.81097 5.65838 8.35183C5.59856 7.95009 5.7182 7.60573 5.89766 7.26138C6.07712 6.91702 6.37622 6.63006 6.79496 6.51527C7.15388 6.28571 7.57262 6.28571 7.81189 6.28571ZM11.76 7.66312H7.81189C7.57262 7.66312 7.45298 7.66312 7.39316 7.72052C7.27352 7.77791 7.2137 7.8353 7.15388 7.95008C7.09406 8.00748 7.09406 8.12226 7.09406 8.23705C7.09406 8.29444 7.15388 8.35183 7.27352 8.5814L11.76 16.0424V7.66312ZM13.1957 7.66312V16.0998L17.742 8.5814C17.8018 8.46662 17.8018 8.35183 17.8018 8.23705C17.8018 8.12226 17.8018 8.00748 17.742 7.95008C17.6822 7.89269 17.6822 7.8353 17.6223 7.8353L17.5625 7.77791C17.4429 7.72052 17.3232 7.72052 17.1438 7.72052H13.1957V7.66312Z" fill="white"/>
</g>
<defs>
<clipPath id="clip0_2084_553">
<rect width="24" height="24" fill="white" transform="translate(0.5)"/>
</clipPath>
</defs>
</svg>
