<svg width="20" height="20" viewBox="0 0 20 20" fill="none" xmlns="http://www.w3.org/2000/svg">
<path d="M16.4968 4.0793L17.2226 3.25H16.1205H14H13.7729L13.6235 3.42102L10.5369 6.95365L7.88537 3.44836L7.73533 3.25H7.48661H3.11161H2.09969L2.71446 4.05376L7.69357 10.5636L3.00759 15.9208L2.28229 16.75H3.38393H5.50446H5.73128L5.88068 16.5793L9.30406 12.6686L12.2723 16.5536L12.4224 16.75H12.6696H16.9375H17.9427L17.3363 15.9483L12.1309 9.06762L16.4968 4.0793ZM0.5 2.85714C0.5 1.55739 1.55739 0.5 2.85714 0.5H17.1429C18.4426 0.5 19.5 1.55739 19.5 2.85714V17.1429C19.5 18.4426 18.4426 19.5 17.1429 19.5H2.85714C1.55739 19.5 0.5 18.4426 0.5 17.1429V2.85714ZM6.59651 5.45089H6.59943L6.86099 5.79681L6.59651 5.45089Z" fill="white" stroke="white"/>
</svg>
